<?xml version="1.0" standalone="no"?>
<!DOCTYPE svg PUBLIC "-//W3C//DTD SVG 20010904//EN"
 "http://www.w3.org/TR/2001/REC-SVG-20010904/DTD/svg10.dtd">
<svg version="1.0" xmlns="http://www.w3.org/2000/svg"
 width="1280.000000pt" height="957.000000pt" viewBox="0 0 1280.000000 957.000000"
 preserveAspectRatio="xMidYMid meet">
<metadata>
Created by potrace 1.15, written by Peter Selinger 2001-2017
</metadata>
<g transform="translate(0.000000,957.000000) scale(0.100000,-0.100000)"
fill="#000000" stroke="none">
<path d="M1683 9559 c-121 -15 -452 -122 -703 -226 -85 -36 -177 -70 -204 -77
-33 -9 -52 -19 -57 -33 -4 -12 -42 -47 -84 -78 -41 -31 -112 -97 -157 -146
-45 -49 -85 -89 -90 -89 -4 0 -53 32 -109 70 -56 39 -108 70 -115 70 -8 0 -16
-11 -20 -25 -9 -38 14 -278 33 -336 23 -72 7 -168 -35 -213 -17 -17 -33 -47
-37 -66 -4 -19 -12 -40 -17 -47 -11 -13 -88 -364 -88 -397 1 -20 1 -20 15 -2
8 10 28 62 44 115 29 92 60 155 61 121 0 -8 -16 -84 -34 -167 -55 -242 -59
-319 -11 -213 20 45 32 51 37 18 2 -13 12 11 22 57 28 125 48 195 56 195 4 0
10 -60 12 -132 5 -105 12 -157 37 -248 88 -330 152 -873 152 -1281 -1 -211 1
-234 19 -269 42 -83 124 -150 199 -164 18 -3 75 -27 125 -53 82 -43 97 -47
157 -46 204 2 464 191 446 324 -3 21 -17 70 -33 109 -27 69 -27 70 -11 133 23
93 182 528 227 623 33 67 49 88 90 118 28 20 65 57 83 83 18 26 44 60 59 77
l26 31 37 -40 c58 -63 196 -277 284 -441 l81 -151 0 -245 c0 -269 -7 -325 -65
-558 -56 -224 -69 -305 -69 -445 -1 -184 27 -270 169 -520 41 -72 75 -141 75
-153 0 -45 -87 -120 -279 -241 -62 -39 -179 -120 -259 -180 -147 -108 -284
-198 -397 -261 -177 -99 -298 -209 -333 -302 -63 -171 -32 -273 193 -633 215
-345 330 -573 401 -794 77 -240 107 -282 255 -362 46 -24 144 -84 219 -133 74
-49 150 -95 168 -103 18 -8 90 -18 160 -23 81 -6 172 -21 252 -41 169 -42 205
-43 235 -5 60 75 38 195 -76 406 -76 141 -124 204 -176 232 -71 38 -148 58
-227 58 -55 0 -83 6 -126 26 -81 38 -87 45 -50 60 26 11 31 18 28 41 -3 24 -7
28 -38 29 -19 0 -41 1 -47 2 -18 3 -16 32 3 39 25 10 -4 23 -53 23 -49 0 -87
28 -135 99 -17 25 -45 61 -62 80 -17 19 -26 35 -20 38 6 2 20 10 30 17 18 13
14 19 -59 92 -79 78 -93 104 -57 104 27 0 26 5 -20 62 -25 31 -40 61 -40 78 0
17 -15 46 -39 76 -48 61 -80 124 -120 237 -22 64 -27 89 -18 92 45 15 144 41
287 75 164 38 315 85 503 154 61 23 130 40 186 46 106 12 186 36 340 101 125
53 151 58 176 33 68 -68 150 -451 224 -1054 6 -47 15 -169 21 -271 10 -198 16
-248 56 -454 33 -172 48 -491 41 -900 -6 -405 -13 -430 -155 -607 -104 -128
-159 -216 -211 -333 -25 -55 -72 -145 -104 -199 -33 -55 -66 -114 -73 -132
-13 -32 -13 -34 13 -51 54 -36 529 -18 647 23 56 20 82 48 123 129 19 39 45
84 57 100 29 37 71 121 80 157 3 15 15 32 25 38 28 14 43 -10 51 -83 6 -60 7
-61 19 -33 6 17 16 62 21 100 10 75 26 127 85 269 20 48 42 116 49 150 8 41
18 63 28 65 23 4 28 45 29 216 0 133 2 149 14 131 37 -52 44 -59 51 -52 13 13
-13 92 -70 216 -30 64 -53 117 -51 119 2 2 13 -1 24 -8 12 -6 21 -8 21 -5 0 3
-25 42 -55 86 -74 108 -65 125 24 45 35 -32 34 -23 -6 30 -13 17 -23 43 -23
57 0 35 -32 119 -59 153 -29 37 -20 41 26 10 20 -14 41 -26 46 -26 5 0 -34 47
-86 104 l-94 104 14 114 c7 62 20 147 29 188 11 55 17 196 24 530 14 736 20
814 76 1103 l28 139 60 -7 c92 -10 281 -49 481 -100 254 -64 302 -68 768 -62
344 4 422 8 540 26 221 35 433 104 720 235 43 20 84 36 92 36 17 0 173 -172
219 -242 19 -29 52 -100 72 -158 53 -156 121 -325 165 -413 104 -207 192 -319
444 -570 118 -117 195 -201 195 -212 1 -11 36 -118 79 -238 l79 -218 -52 -57
c-29 -31 -87 -100 -128 -153 -42 -53 -98 -115 -125 -139 -80 -71 -476 -341
-596 -407 -61 -34 -137 -77 -167 -95 -71 -43 -178 -149 -185 -185 -22 -101
-111 -261 -205 -368 -69 -79 -143 -186 -165 -238 -11 -27 -16 -93 -19 -264 -2
-125 -7 -258 -11 -295 l-7 -67 33 -20 c45 -28 100 -27 196 4 185 58 423 243
437 339 3 17 7 86 10 152 5 162 31 211 57 109 12 -46 29 -52 29 -11 0 37 38
175 64 233 32 69 88 152 135 201 30 30 45 39 63 35 20 -4 30 4 61 52 49 73
112 135 138 135 11 0 39 18 62 40 29 29 43 37 48 28 6 -9 26 5 71 48 77 75
180 152 363 274 237 157 295 175 295 91 0 -21 16 -125 35 -232 43 -233 50
-323 40 -494 l-7 -129 -107 -110 c-187 -194 -291 -342 -291 -416 0 -36 -21
-78 -89 -180 -28 -41 -51 -85 -51 -98 0 -38 38 -45 276 -50 295 -5 386 9 445
71 31 32 69 117 69 155 0 32 23 64 64 87 13 8 21 34 31 100 8 50 28 135 45
189 17 55 33 118 36 140 9 71 14 86 27 83 9 -1 14 42 19 167 4 93 10 172 14
175 3 3 10 -2 15 -12 6 -9 14 -17 19 -17 11 0 -11 78 -44 160 -15 36 -31 93
-36 128 -5 35 -14 70 -21 78 -22 27 7 14 36 -16 42 -44 49 -37 15 17 -17 26
-28 54 -25 61 3 7 -2 26 -10 42 -21 40 -19 48 10 42 17 -3 25 0 25 10 0 18
-51 98 -74 117 -24 20 -61 95 -80 161 -22 79 -43 265 -56 499 -16 304 -27 339
-141 457 l-69 71 0 254 c0 332 11 407 75 526 26 48 82 142 123 208 157 249
203 327 262 446 125 248 196 455 226 652 19 122 26 543 11 627 -6 32 -5 41 2
30 37 -52 132 -522 177 -868 50 -390 147 -751 291 -1080 105 -240 354 -626
523 -812 l50 -55 0 36 c0 27 -5 38 -18 41 -37 10 -104 138 -72 138 19 0 224
-207 287 -289 64 -86 221 -233 393 -371 112 -88 156 -117 227 -146 28 -12 148
-73 265 -137 117 -63 224 -118 238 -122 24 -6 24 -6 -5 18 -16 14 -27 28 -23
32 13 14 98 -46 98 -70 0 -16 85 -58 190 -94 47 -16 125 -44 173 -61 100 -36
233 -53 225 -29 -2 8 -39 26 -81 40 -81 28 -92 34 -144 83 -41 37 -46 67 -8
42 13 -9 45 -16 70 -16 26 0 73 -11 108 -25 82 -34 237 -76 237 -65 0 5 -20
26 -45 47 -25 20 -45 40 -45 44 0 13 63 -10 114 -41 27 -17 51 -28 54 -25 3 3
-2 21 -11 39 -17 36 -77 83 -140 110 -21 8 -36 20 -32 26 10 17 70 11 130 -12
47 -18 58 -19 65 -8 7 11 28 1 95 -44 48 -31 89 -55 92 -53 7 7 -22 59 -43 79
-11 9 -37 24 -59 34 l-40 18 64 6 c57 4 62 7 47 19 -23 19 -46 65 -46 91 0 11
2 20 4 20 2 0 33 -13 69 -30 70 -31 127 -42 134 -25 6 18 -93 121 -170 176
-39 29 -91 69 -115 90 -23 20 -111 83 -195 140 -236 159 -309 220 -394 327
-95 118 -155 182 -173 182 -8 0 10 -25 40 -55 29 -30 52 -57 49 -59 -2 -3 -49
25 -104 62 -65 44 -105 77 -114 97 -19 41 -42 67 -200 235 -201 214 -218 233
-336 380 -59 74 -114 139 -121 143 -8 4 -14 16 -14 26 0 23 -47 95 -103 158
-25 28 -48 65 -52 81 -3 16 -28 57 -56 91 -125 155 -271 390 -431 695 -210
399 -369 633 -582 853 -130 136 -188 176 -393 274 -349 167 -361 174 -513 309
-120 105 -206 164 -355 241 -148 77 -319 143 -484 187 l-136 36 -235 0 c-187
1 -277 -4 -440 -23 -411 -49 -803 -31 -1330 60 -239 41 -383 91 -548 190 -102
62 -123 77 -263 189 -59 47 -132 104 -163 128 -64 48 -77 69 -53 87 59 43 -61
139 -238 191 -73 21 -126 74 -229 229 -91 135 -166 277 -245 457 -32 76 -72
158 -88 182 -73 116 -202 284 -266 347 -174 173 -469 360 -690 438 -376 133
-1056 222 -1374 180z m7932 -5534 c6 -32 5 -38 -5 -28 -17 15 -50 115 -43 127
8 13 40 -52 48 -99z m1800 -1815 c102 -75 93 -97 -13 -32 -72 43 -152 109
-152 123 0 13 96 -40 165 -91z m816 33 c27 -14 49 -30 49 -35 0 -10 3 -11 -61
8 -56 16 -79 30 -79 45 0 17 43 9 91 -18z m-431 -219 c20 -20 21 -24 7 -24 -9
0 -31 14 -49 31 -31 29 -32 30 -8 24 14 -4 36 -18 50 -31z m-3069 -1620 l-7
-39 -12 34 c-15 43 -15 64 0 79 18 18 27 -22 19 -74z"/>
<path d="M10411 2744 c28 -31 368 -329 399 -351 12 -8 24 -13 26 -10 6 5 -194
188 -341 311 -90 75 -130 99 -84 50z"/>
</g>
</svg>
